<svg xmlns="http://www.w3.org/2000/svg" width="980" height="220" viewBox="0 0 980 220">
  <defs>
    <linearGradient id="fade" x1="0" x2="0" y1="0" y2="1">
      <stop offset="0" stop-color="#22C55E" stop-opacity="0.30"/>
      <stop offset="1" stop-color="#22C55E" stop-opacity="0.00"/>
    </linearGradient>
    <filter id="softGlow" x="-20%" y="-20%" width="140%" height="140%">
      <feGaussianBlur stdDeviation="2.2" result="blur"/>
      <feMerge>
        <feMergeNode in="blur"/>
        <feMergeNode in="SourceGraphic"/>
      </feMerge>
    </filter>
  </defs>

  <rect x="0" y="0" width="980" height="220" fill="#0D1117"/>

  <text x="24" y="32" fill="#22C55E" font-family="JetBrains Mono, ui-monospace, SFMono-Regular, Menlo, Monaco, Consolas, monospace" font-size="18" letter-spacing="1.2">SIGNAL // 365D</text>
  <text x="24" y="52" fill="#9CA3AF" font-family="JetBrains Mono, ui-monospace, SFMono-Regular, Menlo, Monaco, Consolas, monospace" font-size="12">44 contributions · max/day 28</text>
  <text x="956" y="52" text-anchor="end" fill="#6B7280" font-family="JetBrains Mono, ui-monospace, SFMono-Regular, Menlo, Monaco, Consolas, monospace" font-size="12">2025-12-21 UTC</text>

  <line x1="24" y1="64.00" x2="956" y2="64.00" stroke="#1F2937" stroke-width="1"/><line x1="24" y1="93.50" x2="956" y2="93.50" stroke="#1F2937" stroke-width="1"/><line x1="24" y1="123.00" x2="956" y2="123.00" stroke="#1F2937" stroke-width="1"/><line x1="24" y1="152.50" x2="956" y2="152.50" stroke="#1F2937" stroke-width="1"/><line x1="24" y1="182.00" x2="956" y2="182.00" stroke="#1F2937" stroke-width="1"/>

  <!-- Area under moving avg -->
  <path d="M 25.05 182.00 L 27.60 182.00 L 30.15 182.00 L 32.71 182.00 L 35.26 182.00 L 37.81 182.00 L 40.37 182.00 L 42.92 182.00 L 45.47 182.00 L 48.03 182.00 L 50.58 182.00 L 53.13 182.00 L 55.69 182.00 L 58.24 182.00 L 60.79 182.00 L 63.35 182.00 L 65.90 182.00 L 68.46 182.00 L 71.01 182.00 L 73.56 182.00 L 76.12 182.00 L 78.67 182.00 L 81.22 182.00 L 83.78 182.00 L 86.33 181.00 L 88.88 181.00 L 91.44 181.00 L 93.99 181.00 L 96.54 181.00 L 99.10 181.00 L 101.65 181.00 L 104.20 181.00 L 106.76 181.00 L 109.31 181.00 L 111.86 181.00 L 114.42 181.00 L 116.97 181.00 L 119.52 181.00 L 122.08 181.00 L 124.63 181.00 L 127.18 181.00 L 129.74 181.00 L 132.29 181.00 L 134.84 181.00 L 137.40 181.00 L 139.95 182.00 L 142.50 182.00 L 145.06 182.00 L 147.61 182.00 L 150.16 182.00 L 152.72 182.00 L 155.27 182.00 L 157.82 182.00 L 160.38 182.00 L 162.93 182.00 L 165.49 182.00 L 168.04 182.00 L 170.59 182.00 L 173.15 182.00 L 175.70 182.00 L 178.25 182.00 L 180.81 182.00 L 183.36 182.00 L 185.91 182.00 L 188.47 182.00 L 191.02 182.00 L 193.57 182.00 L 196.13 182.00 L 198.68 182.00 L 201.23 182.00 L 203.79 182.00 L 206.34 182.00 L 208.89 182.00 L 211.45 182.00 L 214.00 182.00 L 216.55 182.00 L 219.11 182.00 L 221.66 182.00 L 224.21 182.00 L 226.77 182.00 L 229.32 182.00 L 231.87 182.00 L 234.43 182.00 L 236.98 182.00 L 239.53 182.00 L 242.09 182.00 L 244.64 182.00 L 247.19 182.00 L 249.75 182.00 L 252.30 182.00 L 254.86 182.00 L 257.41 182.00 L 259.96 182.00 L 262.52 182.00 L 265.07 182.00 L 267.62 182.00 L 270.18 182.00 L 272.73 182.00 L 275.28 182.00 L 277.84 182.00 L 280.39 182.00 L 282.94 182.00 L 285.50 182.00 L 288.05 182.00 L 290.60 182.00 L 293.16 182.00 L 295.71 182.00 L 298.26 182.00 L 300.82 182.00 L 303.37 182.00 L 305.92 182.00 L 308.48 182.00 L 311.03 182.00 L 313.58 182.00 L 316.14 182.00 L 318.69 182.00 L 321.24 182.00 L 323.80 182.00 L 326.35 182.00 L 328.90 182.00 L 331.46 182.00 L 334.01 182.00 L 336.56 182.00 L 339.12 182.00 L 341.67 182.00 L 344.22 182.00 L 346.78 182.00 L 349.33 182.00 L 351.89 182.00 L 354.44 182.00 L 356.99 182.00 L 359.55 182.00 L 362.10 182.00 L 364.65 182.00 L 367.21 182.00 L 369.76 182.00 L 372.31 182.00 L 374.87 182.00 L 377.42 182.00 L 379.97 182.00 L 382.53 182.00 L 385.08 182.00 L 387.63 182.00 L 390.19 182.00 L 392.74 182.00 L 395.29 182.00 L 397.85 182.00 L 400.40 182.00 L 402.95 182.00 L 405.51 182.00 L 408.06 182.00 L 410.61 182.00 L 413.17 182.00 L 415.72 182.00 L 418.27 182.00 L 420.83 182.00 L 423.38 182.00 L 425.93 182.00 L 428.49 182.00 L 431.04 182.00 L 433.59 182.00 L 436.15 182.00 L 438.70 182.00 L 441.26 182.00 L 443.81 182.00 L 446.36 182.00 L 448.92 182.00 L 451.47 182.00 L 454.02 182.00 L 456.58 182.00 L 459.13 182.00 L 461.68 182.00 L 464.24 182.00 L 466.79 182.00 L 469.34 182.00 L 471.90 182.00 L 474.45 182.00 L 477.00 182.00 L 479.56 182.00 L 482.11 182.00 L 484.66 182.00 L 487.22 182.00 L 489.77 182.00 L 492.32 182.00 L 494.88 182.00 L 497.43 182.00 L 499.98 182.00 L 502.54 182.00 L 505.09 182.00 L 507.64 182.00 L 510.20 182.00 L 512.75 182.00 L 515.30 182.00 L 517.86 182.00 L 520.41 182.00 L 522.96 182.00 L 525.52 182.00 L 528.07 182.00 L 530.62 182.00 L 533.18 182.00 L 535.73 182.00 L 538.29 182.00 L 540.84 182.00 L 543.39 182.00 L 545.95 182.00 L 548.50 182.00 L 551.05 182.00 L 553.61 182.00 L 556.16 182.00 L 558.71 182.00 L 561.27 182.00 L 563.82 182.00 L 566.37 182.00 L 568.93 182.00 L 571.48 182.00 L 574.03 182.00 L 576.59 182.00 L 579.14 182.00 L 581.69 182.00 L 584.25 182.00 L 586.80 182.00 L 589.35 182.00 L 591.91 182.00 L 594.46 182.00 L 597.01 182.00 L 599.57 182.00 L 602.12 182.00 L 604.67 182.00 L 607.23 182.00 L 609.78 182.00 L 612.33 182.00 L 614.89 182.00 L 617.44 182.00 L 619.99 182.00 L 622.55 182.00 L 625.10 182.00 L 627.66 182.00 L 630.21 182.00 L 632.76 182.00 L 635.32 182.00 L 637.87 182.00 L 640.42 182.00 L 642.98 182.00 L 645.53 182.00 L 648.08 182.00 L 650.64 182.00 L 653.19 182.00 L 655.74 182.00 L 658.30 182.00 L 660.85 182.00 L 663.40 182.00 L 665.96 182.00 L 668.51 182.00 L 671.06 182.00 L 673.62 182.00 L 676.17 182.00 L 678.72 182.00 L 681.28 182.00 L 683.83 182.00 L 686.38 182.00 L 688.94 182.00 L 691.49 182.00 L 694.04 182.00 L 696.60 182.00 L 699.15 182.00 L 701.70 182.00 L 704.26 182.00 L 706.81 182.00 L 709.36 182.00 L 711.92 182.00 L 714.47 182.00 L 717.02 182.00 L 719.58 182.00 L 722.13 182.00 L 724.69 182.00 L 727.24 182.00 L 729.79 182.00 L 732.35 182.00 L 734.90 182.00 L 737.45 182.00 L 740.01 182.00 L 742.56 182.00 L 745.11 182.00 L 747.67 182.00 L 750.22 182.00 L 752.77 182.00 L 755.33 182.00 L 757.88 182.00 L 760.43 182.00 L 762.99 182.00 L 765.54 182.00 L 768.09 182.00 L 770.65 182.00 L 773.20 182.00 L 775.75 182.00 L 778.31 182.00 L 780.86 182.00 L 783.41 182.00 L 785.97 182.00 L 788.52 182.00 L 791.07 182.00 L 793.63 182.00 L 796.18 182.00 L 798.73 182.00 L 801.29 182.00 L 803.84 182.00 L 806.39 182.00 L 808.95 182.00 L 811.50 182.00 L 814.06 182.00 L 816.61 182.00 L 819.16 182.00 L 821.72 182.00 L 824.27 182.00 L 826.82 182.00 L 829.38 182.00 L 831.93 182.00 L 834.48 182.00 L 837.04 182.00 L 839.59 182.00 L 842.14 182.00 L 844.70 182.00 L 847.25 182.00 L 849.80 182.00 L 852.36 182.00 L 854.91 182.00 L 857.46 182.00 L 860.02 182.00 L 862.57 182.00 L 865.12 182.00 L 867.68 182.00 L 870.23 182.00 L 872.78 182.00 L 875.34 182.00 L 877.89 182.00 L 880.44 182.00 L 883.00 182.00 L 885.55 181.60 L 888.10 181.60 L 890.66 181.60 L 893.21 181.60 L 895.76 181.60 L 898.32 181.60 L 900.87 181.60 L 903.42 181.60 L 905.98 181.60 L 908.53 181.60 L 911.09 181.60 L 913.64 181.60 L 916.19 181.60 L 918.75 181.60 L 921.30 181.60 L 923.85 181.60 L 926.41 181.60 L 928.96 181.00 L 931.51 180.19 L 934.07 180.19 L 936.62 179.79 L 939.17 180.19 L 941.73 174.57 L 944.28 174.57 L 946.83 174.57 L 949.39 174.57 L 951.94 174.57 L 954.49 174.57 L 954.49 182.00 L 25.05 182.00 Z" fill="url(#fade)" opacity="0.55"/>

  <!-- Bars -->
  <rect x="24.00" y="182.00" width="2.09" height="0.00" rx="1.2" fill="#22C55E" opacity="0.22"/><rect x="26.55" y="182.00" width="2.09" height="0.00" rx="1.2" fill="#22C55E" opacity="0.22"/><rect x="29.11" y="182.00" width="2.09" height="0.00" rx="1.2" fill="#22C55E" opacity="0.22"/><rect x="31.66" y="182.00" width="2.09" height="0.00" rx="1.2" fill="#22C55E" opacity="0.22"/><rect x="34.21" y="182.00" width="2.09" height="0.00" rx="1.2" fill="#22C55E" opacity="0.22"/><rect x="36.77" y="182.00" width="2.09" height="0.00" rx="1.2" fill="#22C55E" opacity="0.22"/><rect x="39.32" y="182.00" width="2.09" height="0.00" rx="1.2" fill="#22C55E" opacity="0.22"/><rect x="41.87" y="182.00" width="2.09" height="0.00" rx="1.2" fill="#22C55E" opacity="0.22"/><rect x="44.43" y="182.00" width="2.09" height="0.00" rx="1.2" fill="#22C55E" opacity="0.22"/><rect x="46.98" y="182.00" width="2.09" height="0.00" rx="1.2" fill="#22C55E" opacity="0.22"/><rect x="49.53" y="182.00" width="2.09" height="0.00" rx="1.2" fill="#22C55E" opacity="0.22"/><rect x="52.09" y="182.00" width="2.09" height="0.00" rx="1.2" fill="#22C55E" opacity="0.22"/><rect x="54.64" y="182.00" width="2.09" height="0.00" rx="1.2" fill="#22C55E" opacity="0.22"/><rect x="57.19" y="182.00" width="2.09" height="0.00" rx="1.2" fill="#22C55E" opacity="0.22"/><rect x="59.75" y="182.00" width="2.09" height="0.00" rx="1.2" fill="#22C55E" opacity="0.22"/><rect x="62.30" y="182.00" width="2.09" height="0.00" rx="1.2" fill="#22C55E" opacity="0.22"/><rect x="64.85" y="182.00" width="2.09" height="0.00" rx="1.2" fill="#22C55E" opacity="0.22"/><rect x="67.41" y="182.00" width="2.09" height="0.00" rx="1.2" fill="#22C55E" opacity="0.22"/><rect x="69.96" y="182.00" width="2.09" height="0.00" rx="1.2" fill="#22C55E" opacity="0.22"/><rect x="72.52" y="182.00" width="2.09" height="0.00" rx="1.2" fill="#22C55E" opacity="0.22"/><rect x="75.07" y="182.00" width="2.09" height="0.00" rx="1.2" fill="#22C55E" opacity="0.22"/><rect x="77.62" y="182.00" width="2.09" height="0.00" rx="1.2" fill="#22C55E" opacity="0.22"/><rect x="80.18" y="182.00" width="2.09" height="0.00" rx="1.2" fill="#22C55E" opacity="0.22"/><rect x="82.73" y="182.00" width="2.09" height="0.00" rx="1.2" fill="#22C55E" opacity="0.22"/><rect x="85.28" y="160.93" width="2.09" height="21.07" rx="1.2" fill="#22C55E" opacity="0.85"/><rect x="87.84" y="182.00" width="2.09" height="0.00" rx="1.2" fill="#22C55E" opacity="0.22"/><rect x="90.39" y="182.00" width="2.09" height="0.00" rx="1.2" fill="#22C55E" opacity="0.22"/><rect x="92.94" y="182.00" width="2.09" height="0.00" rx="1.2" fill="#22C55E" opacity="0.22"/><rect x="95.50" y="182.00" width="2.09" height="0.00" rx="1.2" fill="#22C55E" opacity="0.22"/><rect x="98.05" y="182.00" width="2.09" height="0.00" rx="1.2" fill="#22C55E" opacity="0.22"/><rect x="100.60" y="182.00" width="2.09" height="0.00" rx="1.2" fill="#22C55E" opacity="0.22"/><rect x="103.16" y="182.00" width="2.09" height="0.00" rx="1.2" fill="#22C55E" opacity="0.22"/><rect x="105.71" y="182.00" width="2.09" height="0.00" rx="1.2" fill="#22C55E" opacity="0.22"/><rect x="108.26" y="182.00" width="2.09" height="0.00" rx="1.2" fill="#22C55E" opacity="0.22"/><rect x="110.82" y="182.00" width="2.09" height="0.00" rx="1.2" fill="#22C55E" opacity="0.22"/><rect x="113.37" y="182.00" width="2.09" height="0.00" rx="1.2" fill="#22C55E" opacity="0.22"/><rect x="115.92" y="182.00" width="2.09" height="0.00" rx="1.2" fill="#22C55E" opacity="0.22"/><rect x="118.48" y="182.00" width="2.09" height="0.00" rx="1.2" fill="#22C55E" opacity="0.22"/><rect x="121.03" y="182.00" width="2.09" height="0.00" rx="1.2" fill="#22C55E" opacity="0.22"/><rect x="123.58" y="182.00" width="2.09" height="0.00" rx="1.2" fill="#22C55E" opacity="0.22"/><rect x="126.14" y="182.00" width="2.09" height="0.00" rx="1.2" fill="#22C55E" opacity="0.22"/><rect x="128.69" y="182.00" width="2.09" height="0.00" rx="1.2" fill="#22C55E" opacity="0.22"/><rect x="131.24" y="182.00" width="2.09" height="0.00" rx="1.2" fill="#22C55E" opacity="0.22"/><rect x="133.80" y="182.00" width="2.09" height="0.00" rx="1.2" fill="#22C55E" opacity="0.22"/><rect x="136.35" y="182.00" width="2.09" height="0.00" rx="1.2" fill="#22C55E" opacity="0.22"/><rect x="138.90" y="182.00" width="2.09" height="0.00" rx="1.2" fill="#22C55E" opacity="0.22"/><rect x="141.46" y="182.00" width="2.09" height="0.00" rx="1.2" fill="#22C55E" opacity="0.22"/><rect x="144.01" y="182.00" width="2.09" height="0.00" rx="1.2" fill="#22C55E" opacity="0.22"/><rect x="146.56" y="182.00" width="2.09" height="0.00" rx="1.2" fill="#22C55E" opacity="0.22"/><rect x="149.12" y="182.00" width="2.09" height="0.00" rx="1.2" fill="#22C55E" opacity="0.22"/><rect x="151.67" y="182.00" width="2.09" height="0.00" rx="1.2" fill="#22C55E" opacity="0.22"/><rect x="154.22" y="182.00" width="2.09" height="0.00" rx="1.2" fill="#22C55E" opacity="0.22"/><rect x="156.78" y="182.00" width="2.09" height="0.00" rx="1.2" fill="#22C55E" opacity="0.22"/><rect x="159.33" y="182.00" width="2.09" height="0.00" rx="1.2" fill="#22C55E" opacity="0.22"/><rect x="161.88" y="182.00" width="2.09" height="0.00" rx="1.2" fill="#22C55E" opacity="0.22"/><rect x="164.44" y="182.00" width="2.09" height="0.00" rx="1.2" fill="#22C55E" opacity="0.22"/><rect x="166.99" y="182.00" width="2.09" height="0.00" rx="1.2" fill="#22C55E" opacity="0.22"/><rect x="169.55" y="182.00" width="2.09" height="0.00" rx="1.2" fill="#22C55E" opacity="0.22"/><rect x="172.10" y="182.00" width="2.09" height="0.00" rx="1.2" fill="#22C55E" opacity="0.22"/><rect x="174.65" y="182.00" width="2.09" height="0.00" rx="1.2" fill="#22C55E" opacity="0.22"/><rect x="177.21" y="182.00" width="2.09" height="0.00" rx="1.2" fill="#22C55E" opacity="0.22"/><rect x="179.76" y="182.00" width="2.09" height="0.00" rx="1.2" fill="#22C55E" opacity="0.22"/><rect x="182.31" y="182.00" width="2.09" height="0.00" rx="1.2" fill="#22C55E" opacity="0.22"/><rect x="184.87" y="182.00" width="2.09" height="0.00" rx="1.2" fill="#22C55E" opacity="0.22"/><rect x="187.42" y="182.00" width="2.09" height="0.00" rx="1.2" fill="#22C55E" opacity="0.22"/><rect x="189.97" y="182.00" width="2.09" height="0.00" rx="1.2" fill="#22C55E" opacity="0.22"/><rect x="192.53" y="182.00" width="2.09" height="0.00" rx="1.2" fill="#22C55E" opacity="0.22"/><rect x="195.08" y="182.00" width="2.09" height="0.00" rx="1.2" fill="#22C55E" opacity="0.22"/><rect x="197.63" y="182.00" width="2.09" height="0.00" rx="1.2" fill="#22C55E" opacity="0.22"/><rect x="200.19" y="182.00" width="2.09" height="0.00" rx="1.2" fill="#22C55E" opacity="0.22"/><rect x="202.74" y="182.00" width="2.09" height="0.00" rx="1.2" fill="#22C55E" opacity="0.22"/><rect x="205.29" y="182.00" width="2.09" height="0.00" rx="1.2" fill="#22C55E" opacity="0.22"/><rect x="207.85" y="182.00" width="2.09" height="0.00" rx="1.2" fill="#22C55E" opacity="0.22"/><rect x="210.40" y="182.00" width="2.09" height="0.00" rx="1.2" fill="#22C55E" opacity="0.22"/><rect x="212.95" y="182.00" width="2.09" height="0.00" rx="1.2" fill="#22C55E" opacity="0.22"/><rect x="215.51" y="182.00" width="2.09" height="0.00" rx="1.2" fill="#22C55E" opacity="0.22"/><rect x="218.06" y="182.00" width="2.09" height="0.00" rx="1.2" fill="#22C55E" opacity="0.22"/><rect x="220.61" y="182.00" width="2.09" height="0.00" rx="1.2" fill="#22C55E" opacity="0.22"/><rect x="223.17" y="182.00" width="2.09" height="0.00" rx="1.2" fill="#22C55E" opacity="0.22"/><rect x="225.72" y="182.00" width="2.09" height="0.00" rx="1.2" fill="#22C55E" opacity="0.22"/><rect x="228.27" y="182.00" width="2.09" height="0.00" rx="1.2" fill="#22C55E" opacity="0.22"/><rect x="230.83" y="182.00" width="2.09" height="0.00" rx="1.2" fill="#22C55E" opacity="0.22"/><rect x="233.38" y="182.00" width="2.09" height="0.00" rx="1.2" fill="#22C55E" opacity="0.22"/><rect x="235.93" y="182.00" width="2.09" height="0.00" rx="1.2" fill="#22C55E" opacity="0.22"/><rect x="238.49" y="182.00" width="2.09" height="0.00" rx="1.2" fill="#22C55E" opacity="0.22"/><rect x="241.04" y="182.00" width="2.09" height="0.00" rx="1.2" fill="#22C55E" opacity="0.22"/><rect x="243.59" y="182.00" width="2.09" height="0.00" rx="1.2" fill="#22C55E" opacity="0.22"/><rect x="246.15" y="182.00" width="2.09" height="0.00" rx="1.2" fill="#22C55E" opacity="0.22"/><rect x="248.70" y="182.00" width="2.09" height="0.00" rx="1.2" fill="#22C55E" opacity="0.22"/><rect x="251.25" y="182.00" width="2.09" height="0.00" rx="1.2" fill="#22C55E" opacity="0.22"/><rect x="253.81" y="182.00" width="2.09" height="0.00" rx="1.2" fill="#22C55E" opacity="0.22"/><rect x="256.36" y="182.00" width="2.09" height="0.00" rx="1.2" fill="#22C55E" opacity="0.22"/><rect x="258.92" y="182.00" width="2.09" height="0.00" rx="1.2" fill="#22C55E" opacity="0.22"/><rect x="261.47" y="182.00" width="2.09" height="0.00" rx="1.2" fill="#22C55E" opacity="0.22"/><rect x="264.02" y="182.00" width="2.09" height="0.00" rx="1.2" fill="#22C55E" opacity="0.22"/><rect x="266.58" y="182.00" width="2.09" height="0.00" rx="1.2" fill="#22C55E" opacity="0.22"/><rect x="269.13" y="182.00" width="2.09" height="0.00" rx="1.2" fill="#22C55E" opacity="0.22"/><rect x="271.68" y="182.00" width="2.09" height="0.00" rx="1.2" fill="#22C55E" opacity="0.22"/><rect x="274.24" y="182.00" width="2.09" height="0.00" rx="1.2" fill="#22C55E" opacity="0.22"/><rect x="276.79" y="182.00" width="2.09" height="0.00" rx="1.2" fill="#22C55E" opacity="0.22"/><rect x="279.34" y="182.00" width="2.09" height="0.00" rx="1.2" fill="#22C55E" opacity="0.22"/><rect x="281.90" y="182.00" width="2.09" height="0.00" rx="1.2" fill="#22C55E" opacity="0.22"/><rect x="284.45" y="182.00" width="2.09" height="0.00" rx="1.2" fill="#22C55E" opacity="0.22"/><rect x="287.00" y="182.00" width="2.09" height="0.00" rx="1.2" fill="#22C55E" opacity="0.22"/><rect x="289.56" y="182.00" width="2.09" height="0.00" rx="1.2" fill="#22C55E" opacity="0.22"/><rect x="292.11" y="182.00" width="2.09" height="0.00" rx="1.2" fill="#22C55E" opacity="0.22"/><rect x="294.66" y="182.00" width="2.09" height="0.00" rx="1.2" fill="#22C55E" opacity="0.22"/><rect x="297.22" y="182.00" width="2.09" height="0.00" rx="1.2" fill="#22C55E" opacity="0.22"/><rect x="299.77" y="182.00" width="2.09" height="0.00" rx="1.2" fill="#22C55E" opacity="0.22"/><rect x="302.32" y="182.00" width="2.09" height="0.00" rx="1.2" fill="#22C55E" opacity="0.22"/><rect x="304.88" y="182.00" width="2.09" height="0.00" rx="1.2" fill="#22C55E" opacity="0.22"/><rect x="307.43" y="182.00" width="2.09" height="0.00" rx="1.2" fill="#22C55E" opacity="0.22"/><rect x="309.98" y="182.00" width="2.09" height="0.00" rx="1.2" fill="#22C55E" opacity="0.22"/><rect x="312.54" y="182.00" width="2.09" height="0.00" rx="1.2" fill="#22C55E" opacity="0.22"/><rect x="315.09" y="182.00" width="2.09" height="0.00" rx="1.2" fill="#22C55E" opacity="0.22"/><rect x="317.64" y="182.00" width="2.09" height="0.00" rx="1.2" fill="#22C55E" opacity="0.22"/><rect x="320.20" y="182.00" width="2.09" height="0.00" rx="1.2" fill="#22C55E" opacity="0.22"/><rect x="322.75" y="182.00" width="2.09" height="0.00" rx="1.2" fill="#22C55E" opacity="0.22"/><rect x="325.30" y="182.00" width="2.09" height="0.00" rx="1.2" fill="#22C55E" opacity="0.22"/><rect x="327.86" y="182.00" width="2.09" height="0.00" rx="1.2" fill="#22C55E" opacity="0.22"/><rect x="330.41" y="182.00" width="2.09" height="0.00" rx="1.2" fill="#22C55E" opacity="0.22"/><rect x="332.96" y="182.00" width="2.09" height="0.00" rx="1.2" fill="#22C55E" opacity="0.22"/><rect x="335.52" y="182.00" width="2.09" height="0.00" rx="1.2" fill="#22C55E" opacity="0.22"/><rect x="338.07" y="182.00" width="2.09" height="0.00" rx="1.2" fill="#22C55E" opacity="0.22"/><rect x="340.62" y="182.00" width="2.09" height="0.00" rx="1.2" fill="#22C55E" opacity="0.22"/><rect x="343.18" y="182.00" width="2.09" height="0.00" rx="1.2" fill="#22C55E" opacity="0.22"/><rect x="345.73" y="182.00" width="2.09" height="0.00" rx="1.2" fill="#22C55E" opacity="0.22"/><rect x="348.28" y="182.00" width="2.09" height="0.00" rx="1.2" fill="#22C55E" opacity="0.22"/><rect x="350.84" y="182.00" width="2.09" height="0.00" rx="1.2" fill="#22C55E" opacity="0.22"/><rect x="353.39" y="182.00" width="2.09" height="0.00" rx="1.2" fill="#22C55E" opacity="0.22"/><rect x="355.95" y="182.00" width="2.09" height="0.00" rx="1.2" fill="#22C55E" opacity="0.22"/><rect x="358.50" y="182.00" width="2.09" height="0.00" rx="1.2" fill="#22C55E" opacity="0.22"/><rect x="361.05" y="182.00" width="2.09" height="0.00" rx="1.2" fill="#22C55E" opacity="0.22"/><rect x="363.61" y="182.00" width="2.09" height="0.00" rx="1.2" fill="#22C55E" opacity="0.22"/><rect x="366.16" y="182.00" width="2.09" height="0.00" rx="1.2" fill="#22C55E" opacity="0.22"/><rect x="368.71" y="182.00" width="2.09" height="0.00" rx="1.2" fill="#22C55E" opacity="0.22"/><rect x="371.27" y="182.00" width="2.09" height="0.00" rx="1.2" fill="#22C55E" opacity="0.22"/><rect x="373.82" y="182.00" width="2.09" height="0.00" rx="1.2" fill="#22C55E" opacity="0.22"/><rect x="376.37" y="182.00" width="2.09" height="0.00" rx="1.2" fill="#22C55E" opacity="0.22"/><rect x="378.93" y="182.00" width="2.09" height="0.00" rx="1.2" fill="#22C55E" opacity="0.22"/><rect x="381.48" y="182.00" width="2.09" height="0.00" rx="1.2" fill="#22C55E" opacity="0.22"/><rect x="384.03" y="182.00" width="2.09" height="0.00" rx="1.2" fill="#22C55E" opacity="0.22"/><rect x="386.59" y="182.00" width="2.09" height="0.00" rx="1.2" fill="#22C55E" opacity="0.22"/><rect x="389.14" y="182.00" width="2.09" height="0.00" rx="1.2" fill="#22C55E" opacity="0.22"/><rect x="391.69" y="182.00" width="2.09" height="0.00" rx="1.2" fill="#22C55E" opacity="0.22"/><rect x="394.25" y="182.00" width="2.09" height="0.00" rx="1.2" fill="#22C55E" opacity="0.22"/><rect x="396.80" y="182.00" width="2.09" height="0.00" rx="1.2" fill="#22C55E" opacity="0.22"/><rect x="399.35" y="182.00" width="2.09" height="0.00" rx="1.2" fill="#22C55E" opacity="0.22"/><rect x="401.91" y="182.00" width="2.09" height="0.00" rx="1.2" fill="#22C55E" opacity="0.22"/><rect x="404.46" y="182.00" width="2.09" height="0.00" rx="1.2" fill="#22C55E" opacity="0.22"/><rect x="407.01" y="182.00" width="2.09" height="0.00" rx="1.2" fill="#22C55E" opacity="0.22"/><rect x="409.57" y="182.00" width="2.09" height="0.00" rx="1.2" fill="#22C55E" opacity="0.22"/><rect x="412.12" y="182.00" width="2.09" height="0.00" rx="1.2" fill="#22C55E" opacity="0.22"/><rect x="414.67" y="182.00" width="2.09" height="0.00" rx="1.2" fill="#22C55E" opacity="0.22"/><rect x="417.23" y="182.00" width="2.09" height="0.00" rx="1.2" fill="#22C55E" opacity="0.22"/><rect x="419.78" y="182.00" width="2.09" height="0.00" rx="1.2" fill="#22C55E" opacity="0.22"/><rect x="422.33" y="182.00" width="2.09" height="0.00" rx="1.2" fill="#22C55E" opacity="0.22"/><rect x="424.89" y="182.00" width="2.09" height="0.00" rx="1.2" fill="#22C55E" opacity="0.22"/><rect x="427.44" y="182.00" width="2.09" height="0.00" rx="1.2" fill="#22C55E" opacity="0.22"/><rect x="429.99" y="182.00" width="2.09" height="0.00" rx="1.2" fill="#22C55E" opacity="0.22"/><rect x="432.55" y="182.00" width="2.09" height="0.00" rx="1.2" fill="#22C55E" opacity="0.22"/><rect x="435.10" y="182.00" width="2.09" height="0.00" rx="1.2" fill="#22C55E" opacity="0.22"/><rect x="437.65" y="182.00" width="2.09" height="0.00" rx="1.2" fill="#22C55E" opacity="0.22"/><rect x="440.21" y="182.00" width="2.09" height="0.00" rx="1.2" fill="#22C55E" opacity="0.22"/><rect x="442.76" y="182.00" width="2.09" height="0.00" rx="1.2" fill="#22C55E" opacity="0.22"/><rect x="445.32" y="182.00" width="2.09" height="0.00" rx="1.2" fill="#22C55E" opacity="0.22"/><rect x="447.87" y="182.00" width="2.09" height="0.00" rx="1.2" fill="#22C55E" opacity="0.22"/><rect x="450.42" y="182.00" width="2.09" height="0.00" rx="1.2" fill="#22C55E" opacity="0.22"/><rect x="452.98" y="182.00" width="2.09" height="0.00" rx="1.2" fill="#22C55E" opacity="0.22"/><rect x="455.53" y="182.00" width="2.09" height="0.00" rx="1.2" fill="#22C55E" opacity="0.22"/><rect x="458.08" y="182.00" width="2.09" height="0.00" rx="1.2" fill="#22C55E" opacity="0.22"/><rect x="460.64" y="182.00" width="2.09" height="0.00" rx="1.2" fill="#22C55E" opacity="0.22"/><rect x="463.19" y="182.00" width="2.09" height="0.00" rx="1.2" fill="#22C55E" opacity="0.22"/><rect x="465.74" y="182.00" width="2.09" height="0.00" rx="1.2" fill="#22C55E" opacity="0.22"/><rect x="468.30" y="182.00" width="2.09" height="0.00" rx="1.2" fill="#22C55E" opacity="0.22"/><rect x="470.85" y="182.00" width="2.09" height="0.00" rx="1.2" fill="#22C55E" opacity="0.22"/><rect x="473.40" y="182.00" width="2.09" height="0.00" rx="1.2" fill="#22C55E" opacity="0.22"/><rect x="475.96" y="182.00" width="2.09" height="0.00" rx="1.2" fill="#22C55E" opacity="0.22"/><rect x="478.51" y="182.00" width="2.09" height="0.00" rx="1.2" fill="#22C55E" opacity="0.22"/><rect x="481.06" y="182.00" width="2.09" height="0.00" rx="1.2" fill="#22C55E" opacity="0.22"/><rect x="483.62" y="182.00" width="2.09" height="0.00" rx="1.2" fill="#22C55E" opacity="0.22"/><rect x="486.17" y="182.00" width="2.09" height="0.00" rx="1.2" fill="#22C55E" opacity="0.22"/><rect x="488.72" y="182.00" width="2.09" height="0.00" rx="1.2" fill="#22C55E" opacity="0.22"/><rect x="491.28" y="182.00" width="2.09" height="0.00" rx="1.2" fill="#22C55E" opacity="0.22"/><rect x="493.83" y="182.00" width="2.09" height="0.00" rx="1.2" fill="#22C55E" opacity="0.22"/><rect x="496.38" y="182.00" width="2.09" height="0.00" rx="1.2" fill="#22C55E" opacity="0.22"/><rect x="498.94" y="182.00" width="2.09" height="0.00" rx="1.2" fill="#22C55E" opacity="0.22"/><rect x="501.49" y="182.00" width="2.09" height="0.00" rx="1.2" fill="#22C55E" opacity="0.22"/><rect x="504.04" y="182.00" width="2.09" height="0.00" rx="1.2" fill="#22C55E" opacity="0.22"/><rect x="506.60" y="182.00" width="2.09" height="0.00" rx="1.2" fill="#22C55E" opacity="0.22"/><rect x="509.15" y="182.00" width="2.09" height="0.00" rx="1.2" fill="#22C55E" opacity="0.22"/><rect x="511.70" y="182.00" width="2.09" height="0.00" rx="1.2" fill="#22C55E" opacity="0.22"/><rect x="514.26" y="182.00" width="2.09" height="0.00" rx="1.2" fill="#22C55E" opacity="0.22"/><rect x="516.81" y="182.00" width="2.09" height="0.00" rx="1.2" fill="#22C55E" opacity="0.22"/><rect x="519.36" y="182.00" width="2.09" height="0.00" rx="1.2" fill="#22C55E" opacity="0.22"/><rect x="521.92" y="182.00" width="2.09" height="0.00" rx="1.2" fill="#22C55E" opacity="0.22"/><rect x="524.47" y="182.00" width="2.09" height="0.00" rx="1.2" fill="#22C55E" opacity="0.22"/><rect x="527.02" y="182.00" width="2.09" height="0.00" rx="1.2" fill="#22C55E" opacity="0.22"/><rect x="529.58" y="182.00" width="2.09" height="0.00" rx="1.2" fill="#22C55E" opacity="0.22"/><rect x="532.13" y="182.00" width="2.09" height="0.00" rx="1.2" fill="#22C55E" opacity="0.22"/><rect x="534.68" y="182.00" width="2.09" height="0.00" rx="1.2" fill="#22C55E" opacity="0.22"/><rect x="537.24" y="182.00" width="2.09" height="0.00" rx="1.2" fill="#22C55E" opacity="0.22"/><rect x="539.79" y="182.00" width="2.09" height="0.00" rx="1.2" fill="#22C55E" opacity="0.22"/><rect x="542.35" y="182.00" width="2.09" height="0.00" rx="1.2" fill="#22C55E" opacity="0.22"/><rect x="544.90" y="182.00" width="2.09" height="0.00" rx="1.2" fill="#22C55E" opacity="0.22"/><rect x="547.45" y="182.00" width="2.09" height="0.00" rx="1.2" fill="#22C55E" opacity="0.22"/><rect x="550.01" y="182.00" width="2.09" height="0.00" rx="1.2" fill="#22C55E" opacity="0.22"/><rect x="552.56" y="182.00" width="2.09" height="0.00" rx="1.2" fill="#22C55E" opacity="0.22"/><rect x="555.11" y="182.00" width="2.09" height="0.00" rx="1.2" fill="#22C55E" opacity="0.22"/><rect x="557.67" y="182.00" width="2.09" height="0.00" rx="1.2" fill="#22C55E" opacity="0.22"/><rect x="560.22" y="182.00" width="2.09" height="0.00" rx="1.2" fill="#22C55E" opacity="0.22"/><rect x="562.77" y="182.00" width="2.09" height="0.00" rx="1.2" fill="#22C55E" opacity="0.22"/><rect x="565.33" y="182.00" width="2.09" height="0.00" rx="1.2" fill="#22C55E" opacity="0.22"/><rect x="567.88" y="182.00" width="2.09" height="0.00" rx="1.2" fill="#22C55E" opacity="0.22"/><rect x="570.43" y="182.00" width="2.09" height="0.00" rx="1.2" fill="#22C55E" opacity="0.22"/><rect x="572.99" y="182.00" width="2.09" height="0.00" rx="1.2" fill="#22C55E" opacity="0.22"/><rect x="575.54" y="182.00" width="2.09" height="0.00" rx="1.2" fill="#22C55E" opacity="0.22"/><rect x="578.09" y="182.00" width="2.09" height="0.00" rx="1.2" fill="#22C55E" opacity="0.22"/><rect x="580.65" y="182.00" width="2.09" height="0.00" rx="1.2" fill="#22C55E" opacity="0.22"/><rect x="583.20" y="182.00" width="2.09" height="0.00" rx="1.2" fill="#22C55E" opacity="0.22"/><rect x="585.75" y="182.00" width="2.09" height="0.00" rx="1.2" fill="#22C55E" opacity="0.22"/><rect x="588.31" y="182.00" width="2.09" height="0.00" rx="1.2" fill="#22C55E" opacity="0.22"/><rect x="590.86" y="182.00" width="2.09" height="0.00" rx="1.2" fill="#22C55E" opacity="0.22"/><rect x="593.41" y="182.00" width="2.09" height="0.00" rx="1.2" fill="#22C55E" opacity="0.22"/><rect x="595.97" y="182.00" width="2.09" height="0.00" rx="1.2" fill="#22C55E" opacity="0.22"/><rect x="598.52" y="182.00" width="2.09" height="0.00" rx="1.2" fill="#22C55E" opacity="0.22"/><rect x="601.07" y="182.00" width="2.09" height="0.00" rx="1.2" fill="#22C55E" opacity="0.22"/><rect x="603.63" y="182.00" width="2.09" height="0.00" rx="1.2" fill="#22C55E" opacity="0.22"/><rect x="606.18" y="182.00" width="2.09" height="0.00" rx="1.2" fill="#22C55E" opacity="0.22"/><rect x="608.73" y="182.00" width="2.09" height="0.00" rx="1.2" fill="#22C55E" opacity="0.22"/><rect x="611.29" y="182.00" width="2.09" height="0.00" rx="1.2" fill="#22C55E" opacity="0.22"/><rect x="613.84" y="182.00" width="2.09" height="0.00" rx="1.2" fill="#22C55E" opacity="0.22"/><rect x="616.39" y="182.00" width="2.09" height="0.00" rx="1.2" fill="#22C55E" opacity="0.22"/><rect x="618.95" y="182.00" width="2.09" height="0.00" rx="1.2" fill="#22C55E" opacity="0.22"/><rect x="621.50" y="182.00" width="2.09" height="0.00" rx="1.2" fill="#22C55E" opacity="0.22"/><rect x="624.05" y="182.00" width="2.09" height="0.00" rx="1.2" fill="#22C55E" opacity="0.22"/><rect x="626.61" y="182.00" width="2.09" height="0.00" rx="1.2" fill="#22C55E" opacity="0.22"/><rect x="629.16" y="182.00" width="2.09" height="0.00" rx="1.2" fill="#22C55E" opacity="0.22"/><rect x="631.72" y="182.00" width="2.09" height="0.00" rx="1.2" fill="#22C55E" opacity="0.22"/><rect x="634.27" y="182.00" width="2.09" height="0.00" rx="1.2" fill="#22C55E" opacity="0.22"/><rect x="636.82" y="182.00" width="2.09" height="0.00" rx="1.2" fill="#22C55E" opacity="0.22"/><rect x="639.38" y="182.00" width="2.09" height="0.00" rx="1.2" fill="#22C55E" opacity="0.22"/><rect x="641.93" y="182.00" width="2.09" height="0.00" rx="1.2" fill="#22C55E" opacity="0.22"/><rect x="644.48" y="182.00" width="2.09" height="0.00" rx="1.2" fill="#22C55E" opacity="0.22"/><rect x="647.04" y="182.00" width="2.09" height="0.00" rx="1.2" fill="#22C55E" opacity="0.22"/><rect x="649.59" y="182.00" width="2.09" height="0.00" rx="1.2" fill="#22C55E" opacity="0.22"/><rect x="652.14" y="182.00" width="2.09" height="0.00" rx="1.2" fill="#22C55E" opacity="0.22"/><rect x="654.70" y="182.00" width="2.09" height="0.00" rx="1.2" fill="#22C55E" opacity="0.22"/><rect x="657.25" y="182.00" width="2.09" height="0.00" rx="1.2" fill="#22C55E" opacity="0.22"/><rect x="659.80" y="182.00" width="2.09" height="0.00" rx="1.2" fill="#22C55E" opacity="0.22"/><rect x="662.36" y="182.00" width="2.09" height="0.00" rx="1.2" fill="#22C55E" opacity="0.22"/><rect x="664.91" y="182.00" width="2.09" height="0.00" rx="1.2" fill="#22C55E" opacity="0.22"/><rect x="667.46" y="182.00" width="2.09" height="0.00" rx="1.2" fill="#22C55E" opacity="0.22"/><rect x="670.02" y="182.00" width="2.09" height="0.00" rx="1.2" fill="#22C55E" opacity="0.22"/><rect x="672.57" y="182.00" width="2.09" height="0.00" rx="1.2" fill="#22C55E" opacity="0.22"/><rect x="675.12" y="182.00" width="2.09" height="0.00" rx="1.2" fill="#22C55E" opacity="0.22"/><rect x="677.68" y="182.00" width="2.09" height="0.00" rx="1.2" fill="#22C55E" opacity="0.22"/><rect x="680.23" y="182.00" width="2.09" height="0.00" rx="1.2" fill="#22C55E" opacity="0.22"/><rect x="682.78" y="182.00" width="2.09" height="0.00" rx="1.2" fill="#22C55E" opacity="0.22"/><rect x="685.34" y="182.00" width="2.09" height="0.00" rx="1.2" fill="#22C55E" opacity="0.22"/><rect x="687.89" y="182.00" width="2.09" height="0.00" rx="1.2" fill="#22C55E" opacity="0.22"/><rect x="690.44" y="182.00" width="2.09" height="0.00" rx="1.2" fill="#22C55E" opacity="0.22"/><rect x="693.00" y="182.00" width="2.09" height="0.00" rx="1.2" fill="#22C55E" opacity="0.22"/><rect x="695.55" y="182.00" width="2.09" height="0.00" rx="1.2" fill="#22C55E" opacity="0.22"/><rect x="698.10" y="182.00" width="2.09" height="0.00" rx="1.2" fill="#22C55E" opacity="0.22"/><rect x="700.66" y="182.00" width="2.09" height="0.00" rx="1.2" fill="#22C55E" opacity="0.22"/><rect x="703.21" y="182.00" width="2.09" height="0.00" rx="1.2" fill="#22C55E" opacity="0.22"/><rect x="705.76" y="182.00" width="2.09" height="0.00" rx="1.2" fill="#22C55E" opacity="0.22"/><rect x="708.32" y="182.00" width="2.09" height="0.00" rx="1.2" fill="#22C55E" opacity="0.22"/><rect x="710.87" y="182.00" width="2.09" height="0.00" rx="1.2" fill="#22C55E" opacity="0.22"/><rect x="713.42" y="182.00" width="2.09" height="0.00" rx="1.2" fill="#22C55E" opacity="0.22"/><rect x="715.98" y="182.00" width="2.09" height="0.00" rx="1.2" fill="#22C55E" opacity="0.22"/><rect x="718.53" y="182.00" width="2.09" height="0.00" rx="1.2" fill="#22C55E" opacity="0.22"/><rect x="721.08" y="182.00" width="2.09" height="0.00" rx="1.2" fill="#22C55E" opacity="0.22"/><rect x="723.64" y="182.00" width="2.09" height="0.00" rx="1.2" fill="#22C55E" opacity="0.22"/><rect x="726.19" y="182.00" width="2.09" height="0.00" rx="1.2" fill="#22C55E" opacity="0.22"/><rect x="728.75" y="182.00" width="2.09" height="0.00" rx="1.2" fill="#22C55E" opacity="0.22"/><rect x="731.30" y="182.00" width="2.09" height="0.00" rx="1.2" fill="#22C55E" opacity="0.22"/><rect x="733.85" y="182.00" width="2.09" height="0.00" rx="1.2" fill="#22C55E" opacity="0.22"/><rect x="736.41" y="182.00" width="2.09" height="0.00" rx="1.2" fill="#22C55E" opacity="0.22"/><rect x="738.96" y="182.00" width="2.09" height="0.00" rx="1.2" fill="#22C55E" opacity="0.22"/><rect x="741.51" y="182.00" width="2.09" height="0.00" rx="1.2" fill="#22C55E" opacity="0.22"/><rect x="744.07" y="182.00" width="2.09" height="0.00" rx="1.2" fill="#22C55E" opacity="0.22"/><rect x="746.62" y="182.00" width="2.09" height="0.00" rx="1.2" fill="#22C55E" opacity="0.22"/><rect x="749.17" y="182.00" width="2.09" height="0.00" rx="1.2" fill="#22C55E" opacity="0.22"/><rect x="751.73" y="182.00" width="2.09" height="0.00" rx="1.2" fill="#22C55E" opacity="0.22"/><rect x="754.28" y="182.00" width="2.09" height="0.00" rx="1.2" fill="#22C55E" opacity="0.22"/><rect x="756.83" y="182.00" width="2.09" height="0.00" rx="1.2" fill="#22C55E" opacity="0.22"/><rect x="759.39" y="182.00" width="2.09" height="0.00" rx="1.2" fill="#22C55E" opacity="0.22"/><rect x="761.94" y="182.00" width="2.09" height="0.00" rx="1.2" fill="#22C55E" opacity="0.22"/><rect x="764.49" y="182.00" width="2.09" height="0.00" rx="1.2" fill="#22C55E" opacity="0.22"/><rect x="767.05" y="182.00" width="2.09" height="0.00" rx="1.2" fill="#22C55E" opacity="0.22"/><rect x="769.60" y="182.00" width="2.09" height="0.00" rx="1.2" fill="#22C55E" opacity="0.22"/><rect x="772.15" y="182.00" width="2.09" height="0.00" rx="1.2" fill="#22C55E" opacity="0.22"/><rect x="774.71" y="182.00" width="2.09" height="0.00" rx="1.2" fill="#22C55E" opacity="0.22"/><rect x="777.26" y="182.00" width="2.09" height="0.00" rx="1.2" fill="#22C55E" opacity="0.22"/><rect x="779.81" y="182.00" width="2.09" height="0.00" rx="1.2" fill="#22C55E" opacity="0.22"/><rect x="782.37" y="182.00" width="2.09" height="0.00" rx="1.2" fill="#22C55E" opacity="0.22"/><rect x="784.92" y="182.00" width="2.09" height="0.00" rx="1.2" fill="#22C55E" opacity="0.22"/><rect x="787.47" y="182.00" width="2.09" height="0.00" rx="1.2" fill="#22C55E" opacity="0.22"/><rect x="790.03" y="182.00" width="2.09" height="0.00" rx="1.2" fill="#22C55E" opacity="0.22"/><rect x="792.58" y="182.00" width="2.09" height="0.00" rx="1.2" fill="#22C55E" opacity="0.22"/><rect x="795.13" y="182.00" width="2.09" height="0.00" rx="1.2" fill="#22C55E" opacity="0.22"/><rect x="797.69" y="182.00" width="2.09" height="0.00" rx="1.2" fill="#22C55E" opacity="0.22"/><rect x="800.24" y="182.00" width="2.09" height="0.00" rx="1.2" fill="#22C55E" opacity="0.22"/><rect x="802.79" y="182.00" width="2.09" height="0.00" rx="1.2" fill="#22C55E" opacity="0.22"/><rect x="805.35" y="182.00" width="2.09" height="0.00" rx="1.2" fill="#22C55E" opacity="0.22"/><rect x="807.90" y="182.00" width="2.09" height="0.00" rx="1.2" fill="#22C55E" opacity="0.22"/><rect x="810.45" y="182.00" width="2.09" height="0.00" rx="1.2" fill="#22C55E" opacity="0.22"/><rect x="813.01" y="182.00" width="2.09" height="0.00" rx="1.2" fill="#22C55E" opacity="0.22"/><rect x="815.56" y="182.00" width="2.09" height="0.00" rx="1.2" fill="#22C55E" opacity="0.22"/><rect x="818.12" y="182.00" width="2.09" height="0.00" rx="1.2" fill="#22C55E" opacity="0.22"/><rect x="820.67" y="182.00" width="2.09" height="0.00" rx="1.2" fill="#22C55E" opacity="0.22"/><rect x="823.22" y="182.00" width="2.09" height="0.00" rx="1.2" fill="#22C55E" opacity="0.22"/><rect x="825.78" y="182.00" width="2.09" height="0.00" rx="1.2" fill="#22C55E" opacity="0.22"/><rect x="828.33" y="182.00" width="2.09" height="0.00" rx="1.2" fill="#22C55E" opacity="0.22"/><rect x="830.88" y="182.00" width="2.09" height="0.00" rx="1.2" fill="#22C55E" opacity="0.22"/><rect x="833.44" y="182.00" width="2.09" height="0.00" rx="1.2" fill="#22C55E" opacity="0.22"/><rect x="835.99" y="182.00" width="2.09" height="0.00" rx="1.2" fill="#22C55E" opacity="0.22"/><rect x="838.54" y="182.00" width="2.09" height="0.00" rx="1.2" fill="#22C55E" opacity="0.22"/><rect x="841.10" y="182.00" width="2.09" height="0.00" rx="1.2" fill="#22C55E" opacity="0.22"/><rect x="843.65" y="182.00" width="2.09" height="0.00" rx="1.2" fill="#22C55E" opacity="0.22"/><rect x="846.20" y="182.00" width="2.09" height="0.00" rx="1.2" fill="#22C55E" opacity="0.22"/><rect x="848.76" y="182.00" width="2.09" height="0.00" rx="1.2" fill="#22C55E" opacity="0.22"/><rect x="851.31" y="182.00" width="2.09" height="0.00" rx="1.2" fill="#22C55E" opacity="0.22"/><rect x="853.86" y="182.00" width="2.09" height="0.00" rx="1.2" fill="#22C55E" opacity="0.22"/><rect x="856.42" y="182.00" width="2.09" height="0.00" rx="1.2" fill="#22C55E" opacity="0.22"/><rect x="858.97" y="182.00" width="2.09" height="0.00" rx="1.2" fill="#22C55E" opacity="0.22"/><rect x="861.52" y="182.00" width="2.09" height="0.00" rx="1.2" fill="#22C55E" opacity="0.22"/><rect x="864.08" y="182.00" width="2.09" height="0.00" rx="1.2" fill="#22C55E" opacity="0.22"/><rect x="866.63" y="182.00" width="2.09" height="0.00" rx="1.2" fill="#22C55E" opacity="0.22"/><rect x="869.18" y="182.00" width="2.09" height="0.00" rx="1.2" fill="#22C55E" opacity="0.22"/><rect x="871.74" y="182.00" width="2.09" height="0.00" rx="1.2" fill="#22C55E" opacity="0.22"/><rect x="874.29" y="182.00" width="2.09" height="0.00" rx="1.2" fill="#22C55E" opacity="0.22"/><rect x="876.84" y="182.00" width="2.09" height="0.00" rx="1.2" fill="#22C55E" opacity="0.22"/><rect x="879.40" y="182.00" width="2.09" height="0.00" rx="1.2" fill="#22C55E" opacity="0.22"/><rect x="881.95" y="182.00" width="2.09" height="0.00" rx="1.2" fill="#22C55E" opacity="0.22"/><rect x="884.50" y="173.57" width="2.09" height="8.43" rx="1.2" fill="#22C55E" opacity="0.85"/><rect x="887.06" y="182.00" width="2.09" height="0.00" rx="1.2" fill="#22C55E" opacity="0.22"/><rect x="889.61" y="182.00" width="2.09" height="0.00" rx="1.2" fill="#22C55E" opacity="0.22"/><rect x="892.16" y="182.00" width="2.09" height="0.00" rx="1.2" fill="#22C55E" opacity="0.22"/><rect x="894.72" y="182.00" width="2.09" height="0.00" rx="1.2" fill="#22C55E" opacity="0.22"/><rect x="897.27" y="182.00" width="2.09" height="0.00" rx="1.2" fill="#22C55E" opacity="0.22"/><rect x="899.82" y="182.00" width="2.09" height="0.00" rx="1.2" fill="#22C55E" opacity="0.22"/><rect x="902.38" y="182.00" width="2.09" height="0.00" rx="1.2" fill="#22C55E" opacity="0.22"/><rect x="904.93" y="182.00" width="2.09" height="0.00" rx="1.2" fill="#22C55E" opacity="0.22"/><rect x="907.48" y="182.00" width="2.09" height="0.00" rx="1.2" fill="#22C55E" opacity="0.22"/><rect x="910.04" y="182.00" width="2.09" height="0.00" rx="1.2" fill="#22C55E" opacity="0.22"/><rect x="912.59" y="182.00" width="2.09" height="0.00" rx="1.2" fill="#22C55E" opacity="0.22"/><rect x="915.15" y="182.00" width="2.09" height="0.00" rx="1.2" fill="#22C55E" opacity="0.22"/><rect x="917.70" y="182.00" width="2.09" height="0.00" rx="1.2" fill="#22C55E" opacity="0.22"/><rect x="920.25" y="182.00" width="2.09" height="0.00" rx="1.2" fill="#22C55E" opacity="0.22"/><rect x="922.81" y="182.00" width="2.09" height="0.00" rx="1.2" fill="#22C55E" opacity="0.22"/><rect x="925.36" y="182.00" width="2.09" height="0.00" rx="1.2" fill="#22C55E" opacity="0.22"/><rect x="927.91" y="169.36" width="2.09" height="12.64" rx="1.2" fill="#22C55E" opacity="0.85"/><rect x="930.47" y="165.14" width="2.09" height="16.86" rx="1.2" fill="#22C55E" opacity="0.85"/><rect x="933.02" y="182.00" width="2.09" height="0.00" rx="1.2" fill="#22C55E" opacity="0.22"/><rect x="935.57" y="173.57" width="2.09" height="8.43" rx="1.2" fill="#22C55E" opacity="0.85"/><rect x="938.13" y="182.00" width="2.09" height="0.00" rx="1.2" fill="#22C55E" opacity="0.22"/><rect x="940.68" y="64.00" width="2.09" height="118.00" rx="1.2" fill="#22C55E" opacity="0.85"/><rect x="943.23" y="182.00" width="2.09" height="0.00" rx="1.2" fill="#22C55E" opacity="0.22"/><rect x="945.79" y="182.00" width="2.09" height="0.00" rx="1.2" fill="#22C55E" opacity="0.22"/><rect x="948.34" y="182.00" width="2.09" height="0.00" rx="1.2" fill="#22C55E" opacity="0.22"/><rect x="950.89" y="182.00" width="2.09" height="0.00" rx="1.2" fill="#22C55E" opacity="0.22"/><rect x="953.45" y="182.00" width="2.09" height="0.00" rx="1.2" fill="#22C55E" opacity="0.22"/>

  <!-- Moving avg line -->
  <path d="M 25.05 182.00 L 27.60 182.00 L 30.15 182.00 L 32.71 182.00 L 35.26 182.00 L 37.81 182.00 L 40.37 182.00 L 42.92 182.00 L 45.47 182.00 L 48.03 182.00 L 50.58 182.00 L 53.13 182.00 L 55.69 182.00 L 58.24 182.00 L 60.79 182.00 L 63.35 182.00 L 65.90 182.00 L 68.46 182.00 L 71.01 182.00 L 73.56 182.00 L 76.12 182.00 L 78.67 182.00 L 81.22 182.00 L 83.78 182.00 L 86.33 181.00 L 88.88 181.00 L 91.44 181.00 L 93.99 181.00 L 96.54 181.00 L 99.10 181.00 L 101.65 181.00 L 104.20 181.00 L 106.76 181.00 L 109.31 181.00 L 111.86 181.00 L 114.42 181.00 L 116.97 181.00 L 119.52 181.00 L 122.08 181.00 L 124.63 181.00 L 127.18 181.00 L 129.74 181.00 L 132.29 181.00 L 134.84 181.00 L 137.40 181.00 L 139.95 182.00 L 142.50 182.00 L 145.06 182.00 L 147.61 182.00 L 150.16 182.00 L 152.72 182.00 L 155.27 182.00 L 157.82 182.00 L 160.38 182.00 L 162.93 182.00 L 165.49 182.00 L 168.04 182.00 L 170.59 182.00 L 173.15 182.00 L 175.70 182.00 L 178.25 182.00 L 180.81 182.00 L 183.36 182.00 L 185.91 182.00 L 188.47 182.00 L 191.02 182.00 L 193.57 182.00 L 196.13 182.00 L 198.68 182.00 L 201.23 182.00 L 203.79 182.00 L 206.34 182.00 L 208.89 182.00 L 211.45 182.00 L 214.00 182.00 L 216.55 182.00 L 219.11 182.00 L 221.66 182.00 L 224.21 182.00 L 226.77 182.00 L 229.32 182.00 L 231.87 182.00 L 234.43 182.00 L 236.98 182.00 L 239.53 182.00 L 242.09 182.00 L 244.64 182.00 L 247.19 182.00 L 249.75 182.00 L 252.30 182.00 L 254.86 182.00 L 257.41 182.00 L 259.96 182.00 L 262.52 182.00 L 265.07 182.00 L 267.62 182.00 L 270.18 182.00 L 272.73 182.00 L 275.28 182.00 L 277.84 182.00 L 280.39 182.00 L 282.94 182.00 L 285.50 182.00 L 288.05 182.00 L 290.60 182.00 L 293.16 182.00 L 295.71 182.00 L 298.26 182.00 L 300.82 182.00 L 303.37 182.00 L 305.92 182.00 L 308.48 182.00 L 311.03 182.00 L 313.58 182.00 L 316.14 182.00 L 318.69 182.00 L 321.24 182.00 L 323.80 182.00 L 326.35 182.00 L 328.90 182.00 L 331.46 182.00 L 334.01 182.00 L 336.56 182.00 L 339.12 182.00 L 341.67 182.00 L 344.22 182.00 L 346.78 182.00 L 349.33 182.00 L 351.89 182.00 L 354.44 182.00 L 356.99 182.00 L 359.55 182.00 L 362.10 182.00 L 364.65 182.00 L 367.21 182.00 L 369.76 182.00 L 372.31 182.00 L 374.87 182.00 L 377.42 182.00 L 379.97 182.00 L 382.53 182.00 L 385.08 182.00 L 387.63 182.00 L 390.19 182.00 L 392.74 182.00 L 395.29 182.00 L 397.85 182.00 L 400.40 182.00 L 402.95 182.00 L 405.51 182.00 L 408.06 182.00 L 410.61 182.00 L 413.17 182.00 L 415.72 182.00 L 418.27 182.00 L 420.83 182.00 L 423.38 182.00 L 425.93 182.00 L 428.49 182.00 L 431.04 182.00 L 433.59 182.00 L 436.15 182.00 L 438.70 182.00 L 441.26 182.00 L 443.81 182.00 L 446.36 182.00 L 448.92 182.00 L 451.47 182.00 L 454.02 182.00 L 456.58 182.00 L 459.13 182.00 L 461.68 182.00 L 464.24 182.00 L 466.79 182.00 L 469.34 182.00 L 471.90 182.00 L 474.45 182.00 L 477.00 182.00 L 479.56 182.00 L 482.11 182.00 L 484.66 182.00 L 487.22 182.00 L 489.77 182.00 L 492.32 182.00 L 494.88 182.00 L 497.43 182.00 L 499.98 182.00 L 502.54 182.00 L 505.09 182.00 L 507.64 182.00 L 510.20 182.00 L 512.75 182.00 L 515.30 182.00 L 517.86 182.00 L 520.41 182.00 L 522.96 182.00 L 525.52 182.00 L 528.07 182.00 L 530.62 182.00 L 533.18 182.00 L 535.73 182.00 L 538.29 182.00 L 540.84 182.00 L 543.39 182.00 L 545.95 182.00 L 548.50 182.00 L 551.05 182.00 L 553.61 182.00 L 556.16 182.00 L 558.71 182.00 L 561.27 182.00 L 563.82 182.00 L 566.37 182.00 L 568.93 182.00 L 571.48 182.00 L 574.03 182.00 L 576.59 182.00 L 579.14 182.00 L 581.69 182.00 L 584.25 182.00 L 586.80 182.00 L 589.35 182.00 L 591.91 182.00 L 594.46 182.00 L 597.01 182.00 L 599.57 182.00 L 602.12 182.00 L 604.67 182.00 L 607.23 182.00 L 609.78 182.00 L 612.33 182.00 L 614.89 182.00 L 617.44 182.00 L 619.99 182.00 L 622.55 182.00 L 625.10 182.00 L 627.66 182.00 L 630.21 182.00 L 632.76 182.00 L 635.32 182.00 L 637.87 182.00 L 640.42 182.00 L 642.98 182.00 L 645.53 182.00 L 648.08 182.00 L 650.64 182.00 L 653.19 182.00 L 655.74 182.00 L 658.30 182.00 L 660.85 182.00 L 663.40 182.00 L 665.96 182.00 L 668.51 182.00 L 671.06 182.00 L 673.62 182.00 L 676.17 182.00 L 678.72 182.00 L 681.28 182.00 L 683.83 182.00 L 686.38 182.00 L 688.94 182.00 L 691.49 182.00 L 694.04 182.00 L 696.60 182.00 L 699.15 182.00 L 701.70 182.00 L 704.26 182.00 L 706.81 182.00 L 709.36 182.00 L 711.92 182.00 L 714.47 182.00 L 717.02 182.00 L 719.58 182.00 L 722.13 182.00 L 724.69 182.00 L 727.24 182.00 L 729.79 182.00 L 732.35 182.00 L 734.90 182.00 L 737.45 182.00 L 740.01 182.00 L 742.56 182.00 L 745.11 182.00 L 747.67 182.00 L 750.22 182.00 L 752.77 182.00 L 755.33 182.00 L 757.88 182.00 L 760.43 182.00 L 762.99 182.00 L 765.54 182.00 L 768.09 182.00 L 770.65 182.00 L 773.20 182.00 L 775.75 182.00 L 778.31 182.00 L 780.86 182.00 L 783.41 182.00 L 785.97 182.00 L 788.52 182.00 L 791.07 182.00 L 793.63 182.00 L 796.18 182.00 L 798.73 182.00 L 801.29 182.00 L 803.84 182.00 L 806.39 182.00 L 808.95 182.00 L 811.50 182.00 L 814.06 182.00 L 816.61 182.00 L 819.16 182.00 L 821.72 182.00 L 824.27 182.00 L 826.82 182.00 L 829.38 182.00 L 831.93 182.00 L 834.48 182.00 L 837.04 182.00 L 839.59 182.00 L 842.14 182.00 L 844.70 182.00 L 847.25 182.00 L 849.80 182.00 L 852.36 182.00 L 854.91 182.00 L 857.46 182.00 L 860.02 182.00 L 862.57 182.00 L 865.12 182.00 L 867.68 182.00 L 870.23 182.00 L 872.78 182.00 L 875.34 182.00 L 877.89 182.00 L 880.44 182.00 L 883.00 182.00 L 885.55 181.60 L 888.10 181.60 L 890.66 181.60 L 893.21 181.60 L 895.76 181.60 L 898.32 181.60 L 900.87 181.60 L 903.42 181.60 L 905.98 181.60 L 908.53 181.60 L 911.09 181.60 L 913.64 181.60 L 916.19 181.60 L 918.75 181.60 L 921.30 181.60 L 923.85 181.60 L 926.41 181.60 L 928.96 181.00 L 931.51 180.19 L 934.07 180.19 L 936.62 179.79 L 939.17 180.19 L 941.73 174.57 L 944.28 174.57 L 946.83 174.57 L 949.39 174.57 L 951.94 174.57 L 954.49 174.57" fill="none" stroke="#22C55E" stroke-width="2.2" filter="url(#softGlow)" opacity="0.95"/>

  <!-- Frame -->
  <rect x="24" y="64" width="932" height="118" fill="none" stroke="#1F2937" stroke-width="1" rx="10"/>
</svg>
