<svg xmlns="http://www.w3.org/2000/svg" width="980" height="240" viewBox="0 0 980 240">
<defs>

  <!-- Background gradient -->
  <linearGradient id="bgGrad" x1="0" x2="0" y1="0" y2="1">
    <stop offset="0%"   stop-color="#030000"/>
    <stop offset="100%" stop-color="#000000"/>
  </linearGradient>

  <!-- Subtle red-tinted grid -->
  <pattern id="gridPat" width="26" height="26" patternUnits="userSpaceOnUse">
    <path d="M 26 0 L 0 0 0 26" fill="none"
          stroke="#ef4444" stroke-width="0.13" opacity="0.14"/>
  </pattern>

  <!-- Area fill gradient under the line -->
  <linearGradient id="areaGrad" x1="0" x2="0" y1="0" y2="1">
    <stop offset="0%"   stop-color="#ef4444" stop-opacity="0.16"/>
    <stop offset="100%" stop-color="#ef4444" stop-opacity="0.00"/>
  </linearGradient>

  <!-- Plot line red glow -->
  <filter id="lineGlow" x="-10%" y="-100%" width="120%" height="300%">
    <feGaussianBlur stdDeviation="3.5" result="b"/>
    <feColorMatrix in="b" type="matrix"
      values="1.2 0 0 0 0
              0   0 0 0 0
              0   0 0 0 0
              0   0 0 1 0" result="c"/>
    <feMerge>
      <feMergeNode in="c"/>
      <feMergeNode in="SourceGraphic"/>
    </feMerge>
  </filter>

  <!-- Tooltip shadow -->
  <filter id="ttShadow" x="-30%" y="-30%" width="160%" height="160%">
    <feGaussianBlur in="SourceAlpha" stdDeviation="6" result="blur"/>
    <feOffset dx="0" dy="2" result="off"/>
    <feComponentTransfer><feFuncA type="linear" slope="0.45"/></feComponentTransfer>
    <feMerge><feMergeNode in="off"/><feMergeNode in="SourceGraphic"/></feMerge>
  </filter>

  <!-- Tooltip border glow -->
  <filter id="ttGlow" x="-40%" y="-40%" width="180%" height="180%">
    <feGaussianBlur stdDeviation="3.5" result="g"/>
    <feMerge><feMergeNode in="g"/><feMergeNode in="SourceGraphic"/></feMerge>
  </filter>

  <!-- Canvas clip -->
  <clipPath id="cClip"><rect width="980" height="240"/></clipPath>

  <style>
    @keyframes scanMove {
      0%   { transform: translateY(-4px); opacity: 0; }
      6%   { opacity: 0.50; }
      94%  { opacity: 0.14; }
      100% { transform: translateY(244px); opacity: 0; }
    }
    @keyframes borderPulse {
      0%, 100% { opacity: 0.35; }
      50%      { opacity: 0.65; }
    }
    @keyframes dotBlink {
      0%, 100% { opacity: 1; }
      50%      { opacity: 0.15; }
    }
    .scanLine    { animation: scanMove    9s linear     infinite 1s; }
    .outerBorder { animation: borderPulse 4s ease-in-out infinite; }
    .statusDot   { animation: dotBlink    2s step-end   infinite; }
  </style>

</defs>

<g clip-path="url(#cClip)">

  <!-- Base fill + grid -->
  <rect width="980" height="240" fill="url(#bgGrad)"/>
  <rect width="980" height="240" fill="url(#gridPat)"/>

  <!-- Left accent stripe -->
  <rect x="0" y="0" width="3" height="240" fill="#ef4444" opacity="0.28"/>

  <!-- Outer border (animated pulse) -->
  <rect class="outerBorder" x="0.5" y="0.5" width="979" height="239"
        fill="none" stroke="#ef4444" stroke-width="0.8"/>

  <!-- Corner brackets — TL -->
  <path d="M3,21 L3,3 L21,3"
        fill="none" stroke="#ef4444" stroke-width="2.5" opacity="0.9"/>
  <!-- TR -->
  <path d="M959,3 L977,3 L977,21"
        fill="none" stroke="#ef4444" stroke-width="2.5" opacity="0.9"/>
  <!-- BL -->
  <path d="M3,219 L3,237 L21,237"
        fill="none" stroke="#ef4444" stroke-width="2.5" opacity="0.9"/>
  <!-- BR -->
  <path d="M959,237 L977,237 L977,219"
        fill="none" stroke="#ef4444" stroke-width="2.5" opacity="0.9"/>

  <!-- Animated scan line -->
  <rect class="scanLine" x="0" y="0" width="980" height="1.5"
        fill="#ef4444" opacity="0.45"/>

  <!-- Header bar -->
  <rect x="1" y="1" width="978" height="52"
        fill="#ef4444" fill-opacity="0.05"/>
  <line x1="1" y1="52" x2="979" y2="52"
        stroke="#ef4444" stroke-width="0.5" opacity="0.28"/>

  <!-- Header text -->
  <text x="28" y="26"
        font-family="JetBrains Mono, ui-monospace, SFMono-Regular, Menlo, Monaco, Consolas, 'Courier New', monospace" font-size="12" font-weight="bold"
        fill="#ef4444" opacity="0.92" letter-spacing="0.6"
        >SIGNAL // 365D</text>

  <text x="952" y="26" text-anchor="end"
        font-family="JetBrains Mono, ui-monospace, SFMono-Regular, Menlo, Monaco, Consolas, 'Courier New', monospace" font-size="10.5" fill="#6b7280"
        >2026-03-05 UTC</text>

  <text x="28" y="46"
        font-family="JetBrains Mono, ui-monospace, SFMono-Regular, Menlo, Monaco, Consolas, 'Courier New', monospace" font-size="10" fill="#6b7280"
        >193 contributions (private hidden) · peak/day 41 · cap@p85 34 · mode BARCODE</text>

  <!-- Status dot -->
  <circle class="statusDot" cx="944" cy="25"
          r="4" fill="#ef4444"/>

  <!-- Plot rules -->
  <line x1="28" y1="186" x2="952" y2="186"
        stroke="#2d1010" stroke-width="1.0" opacity="0.9"/>
  <line x1="28" y1="68" x2="952" y2="68"
        stroke="#2d1010" stroke-width="0.6" opacity="0.5"/>
  <line x1="28" y1="127" x2="952" y2="127"
        stroke="#2d1010" stroke-width="0.4" opacity="0.3"/>

  <rect x="694.66" y="179.41" width="1.90" height="6.59" fill="#ef4444" opacity="0.18"/>
  <rect x="737.82" y="179.41" width="1.90" height="6.59" fill="#ef4444" opacity="0.18"/>
  <rect x="740.36" y="169.53" width="1.90" height="16.47" fill="#ef4444" opacity="0.18"/>
  <rect x="745.43" y="179.41" width="1.90" height="6.59" fill="#ef4444" opacity="0.18"/>
  <rect x="750.51" y="93.76" width="1.90" height="92.24" fill="#ef4444" opacity="0.18"/>
  <rect x="765.74" y="83.88" width="1.90" height="102.12" fill="#ef4444" opacity="0.18"/>
  <rect x="768.28" y="74.00" width="1.90" height="112.00" fill="#ef4444" opacity="0.18"/>
  <rect x="829.20" y="74.00" width="1.90" height="112.00" fill="#ef4444" opacity="0.18"/>
  <rect x="834.28" y="120.12" width="1.90" height="65.88" fill="#ef4444" opacity="0.18"/>
  <rect x="836.82" y="113.53" width="1.90" height="72.47" fill="#ef4444" opacity="0.18"/>
  <rect x="951.05" y="172.82" width="1.90" height="13.18" fill="#ef4444" opacity="0.18"/>

  <!-- Area fill under the line -->
  <path d="M 28.00 186.00 L 30.54 186.00 L 33.08 186.00 L 35.62 186.00 L 38.15 186.00 L 40.69 186.00 L 43.23 186.00 L 45.77 186.00 L 48.31 186.00 L 50.85 186.00 L 53.38 186.00 L 55.92 186.00 L 58.46 186.00 L 61.00 186.00 L 63.54 186.00 L 66.08 186.00 L 68.62 186.00 L 71.15 186.00 L 73.69 186.00 L 76.23 186.00 L 78.77 186.00 L 81.31 186.00 L 83.85 186.00 L 86.38 186.00 L 88.92 186.00 L 91.46 186.00 L 94.00 186.00 L 96.54 186.00 L 99.08 186.00 L 101.62 186.00 L 104.15 186.00 L 106.69 186.00 L 109.23 186.00 L 111.77 186.00 L 114.31 186.00 L 116.85 186.00 L 119.38 186.00 L 121.92 186.00 L 124.46 186.00 L 127.00 186.00 L 129.54 186.00 L 132.08 186.00 L 134.62 186.00 L 137.15 186.00 L 139.69 186.00 L 142.23 186.00 L 144.77 186.00 L 147.31 186.00 L 149.85 186.00 L 152.38 186.00 L 154.92 186.00 L 157.46 186.00 L 160.00 186.00 L 162.54 186.00 L 165.08 186.00 L 167.62 186.00 L 170.15 186.00 L 172.69 186.00 L 175.23 186.00 L 177.77 186.00 L 180.31 186.00 L 182.85 186.00 L 185.38 186.00 L 187.92 186.00 L 190.46 186.00 L 193.00 186.00 L 195.54 186.00 L 198.08 186.00 L 200.62 186.00 L 203.15 186.00 L 205.69 186.00 L 208.23 186.00 L 210.77 186.00 L 213.31 186.00 L 215.85 186.00 L 218.38 186.00 L 220.92 186.00 L 223.46 186.00 L 226.00 186.00 L 228.54 186.00 L 231.08 186.00 L 233.62 186.00 L 236.15 186.00 L 238.69 186.00 L 241.23 186.00 L 243.77 186.00 L 246.31 186.00 L 248.85 186.00 L 251.38 186.00 L 253.92 186.00 L 256.46 186.00 L 259.00 186.00 L 261.54 186.00 L 264.08 186.00 L 266.62 186.00 L 269.15 186.00 L 271.69 186.00 L 274.23 186.00 L 276.77 186.00 L 279.31 186.00 L 281.85 186.00 L 284.38 186.00 L 286.92 186.00 L 289.46 186.00 L 292.00 186.00 L 294.54 186.00 L 297.08 186.00 L 299.62 186.00 L 302.15 186.00 L 304.69 186.00 L 307.23 186.00 L 309.77 186.00 L 312.31 186.00 L 314.85 186.00 L 317.38 186.00 L 319.92 186.00 L 322.46 186.00 L 325.00 186.00 L 327.54 186.00 L 330.08 186.00 L 332.62 186.00 L 335.15 186.00 L 337.69 186.00 L 340.23 186.00 L 342.77 186.00 L 345.31 186.00 L 347.85 186.00 L 350.38 186.00 L 352.92 186.00 L 355.46 186.00 L 358.00 186.00 L 360.54 186.00 L 363.08 186.00 L 365.62 186.00 L 368.15 186.00 L 370.69 186.00 L 373.23 186.00 L 375.77 186.00 L 378.31 186.00 L 380.85 186.00 L 383.38 186.00 L 385.92 186.00 L 388.46 186.00 L 391.00 186.00 L 393.54 186.00 L 396.08 186.00 L 398.62 186.00 L 401.15 186.00 L 403.69 186.00 L 406.23 186.00 L 408.77 186.00 L 411.31 186.00 L 413.85 186.00 L 416.38 186.00 L 418.92 186.00 L 421.46 186.00 L 424.00 186.00 L 426.54 186.00 L 429.08 186.00 L 431.62 186.00 L 434.15 186.00 L 436.69 186.00 L 439.23 186.00 L 441.77 186.00 L 444.31 186.00 L 446.85 186.00 L 449.38 186.00 L 451.92 186.00 L 454.46 186.00 L 457.00 186.00 L 459.54 186.00 L 462.08 186.00 L 464.62 186.00 L 467.15 186.00 L 469.69 186.00 L 472.23 186.00 L 474.77 186.00 L 477.31 186.00 L 479.85 186.00 L 482.38 186.00 L 484.92 186.00 L 487.46 186.00 L 490.00 186.00 L 492.54 186.00 L 495.08 186.00 L 497.62 186.00 L 500.15 186.00 L 502.69 186.00 L 505.23 186.00 L 507.77 186.00 L 510.31 186.00 L 512.85 186.00 L 515.38 186.00 L 517.92 186.00 L 520.46 186.00 L 523.00 186.00 L 525.54 186.00 L 528.08 186.00 L 530.62 186.00 L 533.15 186.00 L 535.69 186.00 L 538.23 186.00 L 540.77 186.00 L 543.31 186.00 L 545.85 186.00 L 548.38 186.00 L 550.92 186.00 L 553.46 186.00 L 556.00 186.00 L 558.54 186.00 L 561.08 186.00 L 563.62 186.00 L 566.15 186.00 L 568.69 186.00 L 571.23 186.00 L 573.77 186.00 L 576.31 186.00 L 578.85 186.00 L 581.38 186.00 L 583.92 186.00 L 586.46 186.00 L 589.00 186.00 L 591.54 186.00 L 594.08 186.00 L 596.62 186.00 L 599.15 186.00 L 601.69 186.00 L 604.23 186.00 L 606.77 186.00 L 609.31 186.00 L 611.85 186.00 L 614.38 186.00 L 616.92 186.00 L 619.46 186.00 L 622.00 186.00 L 624.54 186.00 L 627.08 186.00 L 629.62 186.00 L 632.15 186.00 L 634.69 186.00 L 637.23 186.00 L 639.77 186.00 L 642.31 186.00 L 644.85 186.00 L 647.38 186.00 L 649.92 186.00 L 652.46 186.00 L 655.00 186.00 L 657.54 186.00 L 660.08 186.00 L 662.62 186.00 L 665.15 186.00 L 667.69 186.00 L 670.23 186.00 L 672.77 186.00 L 675.31 186.00 L 677.85 186.00 L 680.38 186.00 L 682.92 185.40 L 685.46 185.40 L 688.00 185.40 L 690.54 185.40 L 693.08 185.40 L 695.62 185.40 L 698.15 185.40 L 700.69 185.40 L 703.23 185.40 L 705.77 185.40 L 708.31 185.40 L 710.85 186.00 L 713.38 186.00 L 715.92 186.00 L 718.46 186.00 L 721.00 186.00 L 723.54 186.00 L 726.08 185.40 L 728.62 183.90 L 731.15 183.90 L 733.69 183.30 L 736.23 183.30 L 738.77 174.92 L 741.31 174.92 L 743.85 174.92 L 746.38 174.92 L 748.92 174.92 L 751.46 174.92 L 754.00 166.24 L 756.54 157.55 L 759.08 157.55 L 761.62 158.15 L 764.15 158.15 L 766.69 166.53 L 769.23 166.53 L 771.77 166.53 L 774.31 166.53 L 776.85 166.53 L 779.38 166.53 L 781.92 175.82 L 784.46 186.00 L 787.00 186.00 L 789.54 186.00 L 792.08 186.00 L 794.62 186.00 L 797.15 186.00 L 799.69 186.00 L 802.23 186.00 L 804.77 186.00 L 807.31 186.00 L 809.85 186.00 L 812.38 186.00 L 814.92 186.00 L 817.46 175.82 L 820.00 175.82 L 822.54 169.83 L 825.08 163.24 L 827.62 163.24 L 830.15 163.24 L 832.69 163.24 L 835.23 163.24 L 837.77 163.24 L 840.31 163.24 L 842.85 163.24 L 845.38 173.42 L 847.92 173.42 L 850.46 179.41 L 853.00 186.00 L 855.54 186.00 L 858.08 186.00 L 860.62 186.00 L 863.15 186.00 L 865.69 186.00 L 868.23 186.00 L 870.77 186.00 L 873.31 186.00 L 875.85 186.00 L 878.38 186.00 L 880.92 186.00 L 883.46 186.00 L 886.00 186.00 L 888.54 186.00 L 891.08 186.00 L 893.62 186.00 L 896.15 186.00 L 898.69 186.00 L 901.23 186.00 L 903.77 186.00 L 906.31 186.00 L 908.85 186.00 L 911.38 186.00 L 913.92 186.00 L 916.46 186.00 L 919.00 186.00 L 921.54 186.00 L 924.08 186.00 L 926.62 186.00 L 929.15 186.00 L 931.69 186.00 L 934.23 186.00 L 936.77 186.00 L 939.31 184.80 L 941.85 184.68 L 944.38 184.54 L 946.92 184.35 L 949.46 184.12 L 952.00 183.80 L 952.00 186.00 L 28.00  186.00 Z" fill="url(#areaGrad)"/>

  <!-- Plot line with red glow -->
  <path d="M 28.00 186.00 L 30.54 186.00 L 33.08 186.00 L 35.62 186.00 L 38.15 186.00 L 40.69 186.00 L 43.23 186.00 L 45.77 186.00 L 48.31 186.00 L 50.85 186.00 L 53.38 186.00 L 55.92 186.00 L 58.46 186.00 L 61.00 186.00 L 63.54 186.00 L 66.08 186.00 L 68.62 186.00 L 71.15 186.00 L 73.69 186.00 L 76.23 186.00 L 78.77 186.00 L 81.31 186.00 L 83.85 186.00 L 86.38 186.00 L 88.92 186.00 L 91.46 186.00 L 94.00 186.00 L 96.54 186.00 L 99.08 186.00 L 101.62 186.00 L 104.15 186.00 L 106.69 186.00 L 109.23 186.00 L 111.77 186.00 L 114.31 186.00 L 116.85 186.00 L 119.38 186.00 L 121.92 186.00 L 124.46 186.00 L 127.00 186.00 L 129.54 186.00 L 132.08 186.00 L 134.62 186.00 L 137.15 186.00 L 139.69 186.00 L 142.23 186.00 L 144.77 186.00 L 147.31 186.00 L 149.85 186.00 L 152.38 186.00 L 154.92 186.00 L 157.46 186.00 L 160.00 186.00 L 162.54 186.00 L 165.08 186.00 L 167.62 186.00 L 170.15 186.00 L 172.69 186.00 L 175.23 186.00 L 177.77 186.00 L 180.31 186.00 L 182.85 186.00 L 185.38 186.00 L 187.92 186.00 L 190.46 186.00 L 193.00 186.00 L 195.54 186.00 L 198.08 186.00 L 200.62 186.00 L 203.15 186.00 L 205.69 186.00 L 208.23 186.00 L 210.77 186.00 L 213.31 186.00 L 215.85 186.00 L 218.38 186.00 L 220.92 186.00 L 223.46 186.00 L 226.00 186.00 L 228.54 186.00 L 231.08 186.00 L 233.62 186.00 L 236.15 186.00 L 238.69 186.00 L 241.23 186.00 L 243.77 186.00 L 246.31 186.00 L 248.85 186.00 L 251.38 186.00 L 253.92 186.00 L 256.46 186.00 L 259.00 186.00 L 261.54 186.00 L 264.08 186.00 L 266.62 186.00 L 269.15 186.00 L 271.69 186.00 L 274.23 186.00 L 276.77 186.00 L 279.31 186.00 L 281.85 186.00 L 284.38 186.00 L 286.92 186.00 L 289.46 186.00 L 292.00 186.00 L 294.54 186.00 L 297.08 186.00 L 299.62 186.00 L 302.15 186.00 L 304.69 186.00 L 307.23 186.00 L 309.77 186.00 L 312.31 186.00 L 314.85 186.00 L 317.38 186.00 L 319.92 186.00 L 322.46 186.00 L 325.00 186.00 L 327.54 186.00 L 330.08 186.00 L 332.62 186.00 L 335.15 186.00 L 337.69 186.00 L 340.23 186.00 L 342.77 186.00 L 345.31 186.00 L 347.85 186.00 L 350.38 186.00 L 352.92 186.00 L 355.46 186.00 L 358.00 186.00 L 360.54 186.00 L 363.08 186.00 L 365.62 186.00 L 368.15 186.00 L 370.69 186.00 L 373.23 186.00 L 375.77 186.00 L 378.31 186.00 L 380.85 186.00 L 383.38 186.00 L 385.92 186.00 L 388.46 186.00 L 391.00 186.00 L 393.54 186.00 L 396.08 186.00 L 398.62 186.00 L 401.15 186.00 L 403.69 186.00 L 406.23 186.00 L 408.77 186.00 L 411.31 186.00 L 413.85 186.00 L 416.38 186.00 L 418.92 186.00 L 421.46 186.00 L 424.00 186.00 L 426.54 186.00 L 429.08 186.00 L 431.62 186.00 L 434.15 186.00 L 436.69 186.00 L 439.23 186.00 L 441.77 186.00 L 444.31 186.00 L 446.85 186.00 L 449.38 186.00 L 451.92 186.00 L 454.46 186.00 L 457.00 186.00 L 459.54 186.00 L 462.08 186.00 L 464.62 186.00 L 467.15 186.00 L 469.69 186.00 L 472.23 186.00 L 474.77 186.00 L 477.31 186.00 L 479.85 186.00 L 482.38 186.00 L 484.92 186.00 L 487.46 186.00 L 490.00 186.00 L 492.54 186.00 L 495.08 186.00 L 497.62 186.00 L 500.15 186.00 L 502.69 186.00 L 505.23 186.00 L 507.77 186.00 L 510.31 186.00 L 512.85 186.00 L 515.38 186.00 L 517.92 186.00 L 520.46 186.00 L 523.00 186.00 L 525.54 186.00 L 528.08 186.00 L 530.62 186.00 L 533.15 186.00 L 535.69 186.00 L 538.23 186.00 L 540.77 186.00 L 543.31 186.00 L 545.85 186.00 L 548.38 186.00 L 550.92 186.00 L 553.46 186.00 L 556.00 186.00 L 558.54 186.00 L 561.08 186.00 L 563.62 186.00 L 566.15 186.00 L 568.69 186.00 L 571.23 186.00 L 573.77 186.00 L 576.31 186.00 L 578.85 186.00 L 581.38 186.00 L 583.92 186.00 L 586.46 186.00 L 589.00 186.00 L 591.54 186.00 L 594.08 186.00 L 596.62 186.00 L 599.15 186.00 L 601.69 186.00 L 604.23 186.00 L 606.77 186.00 L 609.31 186.00 L 611.85 186.00 L 614.38 186.00 L 616.92 186.00 L 619.46 186.00 L 622.00 186.00 L 624.54 186.00 L 627.08 186.00 L 629.62 186.00 L 632.15 186.00 L 634.69 186.00 L 637.23 186.00 L 639.77 186.00 L 642.31 186.00 L 644.85 186.00 L 647.38 186.00 L 649.92 186.00 L 652.46 186.00 L 655.00 186.00 L 657.54 186.00 L 660.08 186.00 L 662.62 186.00 L 665.15 186.00 L 667.69 186.00 L 670.23 186.00 L 672.77 186.00 L 675.31 186.00 L 677.85 186.00 L 680.38 186.00 L 682.92 185.40 L 685.46 185.40 L 688.00 185.40 L 690.54 185.40 L 693.08 185.40 L 695.62 185.40 L 698.15 185.40 L 700.69 185.40 L 703.23 185.40 L 705.77 185.40 L 708.31 185.40 L 710.85 186.00 L 713.38 186.00 L 715.92 186.00 L 718.46 186.00 L 721.00 186.00 L 723.54 186.00 L 726.08 185.40 L 728.62 183.90 L 731.15 183.90 L 733.69 183.30 L 736.23 183.30 L 738.77 174.92 L 741.31 174.92 L 743.85 174.92 L 746.38 174.92 L 748.92 174.92 L 751.46 174.92 L 754.00 166.24 L 756.54 157.55 L 759.08 157.55 L 761.62 158.15 L 764.15 158.15 L 766.69 166.53 L 769.23 166.53 L 771.77 166.53 L 774.31 166.53 L 776.85 166.53 L 779.38 166.53 L 781.92 175.82 L 784.46 186.00 L 787.00 186.00 L 789.54 186.00 L 792.08 186.00 L 794.62 186.00 L 797.15 186.00 L 799.69 186.00 L 802.23 186.00 L 804.77 186.00 L 807.31 186.00 L 809.85 186.00 L 812.38 186.00 L 814.92 186.00 L 817.46 175.82 L 820.00 175.82 L 822.54 169.83 L 825.08 163.24 L 827.62 163.24 L 830.15 163.24 L 832.69 163.24 L 835.23 163.24 L 837.77 163.24 L 840.31 163.24 L 842.85 163.24 L 845.38 173.42 L 847.92 173.42 L 850.46 179.41 L 853.00 186.00 L 855.54 186.00 L 858.08 186.00 L 860.62 186.00 L 863.15 186.00 L 865.69 186.00 L 868.23 186.00 L 870.77 186.00 L 873.31 186.00 L 875.85 186.00 L 878.38 186.00 L 880.92 186.00 L 883.46 186.00 L 886.00 186.00 L 888.54 186.00 L 891.08 186.00 L 893.62 186.00 L 896.15 186.00 L 898.69 186.00 L 901.23 186.00 L 903.77 186.00 L 906.31 186.00 L 908.85 186.00 L 911.38 186.00 L 913.92 186.00 L 916.46 186.00 L 919.00 186.00 L 921.54 186.00 L 924.08 186.00 L 926.62 186.00 L 929.15 186.00 L 931.69 186.00 L 934.23 186.00 L 936.77 186.00 L 939.31 184.80 L 941.85 184.68 L 944.38 184.54 L 946.92 184.35 L 949.46 184.12 L 952.00 183.80" fill="none" stroke="#ef4444"
        stroke-width="2.2" opacity="0.95" filter="url(#lineGlow)"/>

  <!-- Bright tip dot at the most recent point -->
  <circle cx="952.00" cy="183.80" r="4.5"
          fill="#fca5a5" filter="url(#lineGlow)"/>
  <circle cx="952.00" cy="183.80" r="2"
          fill="#ffffff" opacity="0.9"/>

  <!-- Tooltip shadow layer -->
  <rect x="708" y="84" width="232" height="68" rx="8"
        fill="#000000" opacity="0.92" filter="url(#ttShadow)"/>

  <!-- Tooltip glow stroke -->
  <rect x="708" y="84" width="232" height="68" rx="8"
        fill="none" stroke="#ef4444" stroke-width="1.2" opacity="0.20"
        filter="url(#ttGlow)"/>

  <!-- Tooltip solid fill + border -->
  <rect x="708" y="84" width="232" height="68" rx="8"
        fill="#000000" stroke="#ef4444" stroke-width="0.8" stroke-opacity="0.40" opacity="0.98"/>

  <!-- Tooltip left accent bar -->
  <rect x="708" y="92" width="2.5" height="52" rx="1.5"
        fill="#ef4444" opacity="0.55"/>

  <!-- Tooltip text -->
  <text x="722" y="106"
        font-family="JetBrains Mono, ui-monospace, SFMono-Regular, Menlo, Monaco, Consolas, 'Courier New', monospace" font-size="11" fill="#e2e8f0">
    <tspan x="722" dy="0">Streak 1d  ·  Best 2d</tspan>
    <tspan x="722" dy="17" fill="#e2e8f0" opacity="0.85">Last 7d 4  ·  30d 4</tspan>
    <tspan x="722" dy="16" fill="#6b7280">Avg 0.53/d</tspan>
  </text>

  <!-- Footer rule -->
  <line x1="28" y1="222" x2="952" y2="222"
        stroke="#ef4444" stroke-width="0.4" opacity="0.18"/>

  <text x="28" y="234"
        font-family="JetBrains Mono, ui-monospace, SFMono-Regular, Menlo, Monaco, Consolas, 'Courier New', monospace" font-size="8.5" fill="#ef4444" opacity="0.22"
        >2025-03-06 → 2026-03-05 · 365d WINDOW · Naveenkumar-026</text>

  <text x="952" y="234" text-anchor="end"
        font-family="JetBrains Mono, ui-monospace, SFMono-Regular, Menlo, Monaco, Consolas, 'Courier New', monospace" font-size="8.5" fill="#ef4444" opacity="0.20"
        >Build durable systems. Release deliberately.</text>

</g>
</svg>
